mtllib materials.mtl
v 557.358 43.45 906.53
v 556.787 43.429 901.361
v 552.811 43.412 901.801
v 553.382 43.447 906.969
vt 1 0
vt 1 1
vt 0 1
vt 0 0
vn 0 1 0 
usemtl PedestrianCrossing
f 1/1/1 2/2/1 3/3/1 4/4/1
v 1096.69 60.517 -576.98
v 1103.532 60.806 -588.269
v 1100.111 60.756 -590.342
v 1093.269 60.499 -579.053
vt 1 0
vt 1 1
vt 0 1
vt 0 0
vn 0 1 0 
usemtl PedestrianCrossing
f 5/5/2 6/6/2 7/7/2 8/8/2
v 1049.734 50.123 498.747
v 1044.611 50.098 497.854
v 1043.925 50.07 501.795
v 1049.047 50.092 502.688
vt 1 0
vt 1 1
vt 0 1
vt 0 0
vn 0 1 0 
usemtl PedestrianCrossing
f 9/9/3 10/10/3 11/11/3 12/12/3
v 1119.472 52.923 215.382
v 1111.284 52.913 214.941
v 1111.069 52.797 218.936
v 1119.257 52.791 219.376
vt 1 0
vt 1 1
vt 0 1
vt 0 0
vn 0 1 0 
usemtl PedestrianCrossing
f 13/13/4 14/14/4 15/15/4 16/16/4
v 408.638 39.826 921.716
v 414.705 40.005 922.993
v 415.529 39.947 919.079
v 409.462 39.669 917.801
vt 1 0
vt 1 1
vt 0 1
vt 0 0
vn 0 1 0 
usemtl PedestrianCrossing
f 17/17/5 18/18/5 19/19/5 20/20/5
v -793.202 39.506 860.314
v -787.828 39.711 857.221
v -789.824 39.427 853.754
v -795.197 39.321 856.847
vt 1 0
vt 1 1
vt 0 1
vt 0 0
vn 0 1 0 
usemtl PedestrianCrossing
f 21/21/6 22/22/6 23/23/6 24/24/6
v -770.052 40.121 888.571
v -775.465 40.113 891.594
v -773.514 40.118 895.086
v -768.101 40.124 892.063
vt 1 0
vt 1 1
vt 0 1
vt 0 0
vn 0 1 0 
usemtl PedestrianCrossing
f 25/25/7 26/26/7 27/27/7 28/28/7
v 781.553 47.991 836.268
v 781.747 47.463 841.465
v 785.744 47.297 841.316
v 785.55 47.899 836.12
vt 1 0
vt 1 1
vt 0 1
vt 0 0
vn 0 1 0 
usemtl PedestrianCrossing
f 29/29/8 30/30/8 31/31/8 32/32/8
v 565.718 50.115 -153.502
v 575.9 50.126 -154.1
v 575.666 50.127 -158.093
v 565.483 50.12 -157.495
vt 1 0
vt 1 1
vt 0 1
vt 0 0
vn 0 1 0 
usemtl PedestrianCrossing
f 33/33/9 34/34/9 35/35/9 36/36/9
v -825.646 38.091 805.404
v -820.364 38.111 802.156
v -822.459 38.091 798.749
v -827.741 38.064 801.997
vt 1 0
vt 1 1
vt 0 1
vt 0 0
vn 0 1 0 
usemtl PedestrianCrossing
f 37/37/10 38/38/10 39/39/10 40/40/10
v 189.402 63.238 -808.96
v 190.227 63.254 -814.094
v 186.278 63.338 -814.729
v 185.453 63.316 -809.595
vt 1 0
vt 1 1
vt 0 1
vt 0 0
vn 0 1 0 
usemtl PedestrianCrossing
f 41/41/11 42/42/11 43/43/11 44/44/11
v 1204.287 0.1 -344.32
v 1208.702 0.1 -345.931
v 1207.331 0.1 -349.688
v 1202.916 0.1 -348.077
vt 1 0
vt 1 1
vt 0 1
vt 0 0
vn 0 1 0 
usemtl PedestrianCrossing
f 45/45/12 46/46/12 47/47/12 48/48/12
v -2.924 51.337 768.017
v -7.528 50.787 770.434
v -5.669 49.753 773.976
v -1.065 50.59 771.558
vt 1 0
vt 1 1
vt 0 1
vt 0 0
vn 0 1 0 
usemtl PedestrianCrossing
f 49/49/13 50/50/13 51/51/13 52/52/13
v -16.094 52.042 755.684
v -11.591 52.094 753.082
v -13.592 52.113 749.619
v -18.095 52.061 752.22
vt 1 0
vt 1 1
vt 0 1
vt 0 0
vn 0 1 0 
usemtl PedestrianCrossing
f 53/53/14 54/54/14 55/55/14 56/56/14
v -98.058 51.13 35.016
v -104.817 51.13 30.373
v -107.081 51.13 33.67
v -100.323 51.13 38.313
vt 1 0
vt 1 1
vt 0 1
vt 0 0
vn 0 1 0 
usemtl PedestrianCrossing
f 57/57/15 58/58/15 59/59/15 60/60/15
v -324.746 50.062 227.964
v -329.079 50.077 223.529
v -331.94 50.128 226.324
v -327.607 50.124 230.759
vt 1 0
vt 1 1
vt 0 1
vt 0 0
vn 0 1 0 
usemtl PedestrianCrossing
f 61/61/16 62/62/16 63/63/16 64/64/16
v -302.1 49.353 226.993
v -307.413 49.708 230.19
v -305.35 49.669 233.617
v -300.038 49.321 230.421
vt 1 0
vt 1 1
vt 0 1
vt 0 0
vn 0 1 0 
usemtl PedestrianCrossing
f 65/65/17 66/66/17 67/67/17 68/68/17
v -325.726 49.928 199.134
v -320.358 49.782 196.032
v -322.359 49.826 192.568
v -327.727 49.976 195.67
vt 1 0
vt 1 1
vt 0 1
vt 0 0
vn 0 1 0 
usemtl PedestrianCrossing
f 69/69/18 70/70/18 71/71/18 72/72/18
v 560.786 51.8 -238.726
v 570.971 51.708 -239.284
v 570.752 51.866 -243.278
v 560.568 51.95 -242.72
vt 1 0
vt 1 1
vt 0 1
vt 0 0
vn 0 1 0 
usemtl PedestrianCrossing
f 73/73/19 74/74/19 75/75/19 76/76/19
v -85.236 50.13 200.888
v -92.649 50.13 204.393
v -90.939 50.13 208.009
v -83.526 50.13 204.504
vt 1 0
vt 1 1
vt 0 1
vt 0 0
vn 0 1 0 
usemtl PedestrianCrossing
f 77/77/20 78/78/20 79/79/20 80/80/20
v 291.65 50.274 -77.831
v 296.643 50.244 -79.284
v 295.526 50.344 -83.125
v 290.533 50.404 -81.672
vt 1 0
vt 1 1
vt 0 1
vt 0 0
vn 0 1 0 
usemtl PedestrianCrossing
f 81/81/21 82/82/21 83/83/21 84/84/21
v -237.398 50.304 336.72
v -242.902 50.558 339.574
v -241.06 50.34 343.125
v -235.556 50.255 340.271
vt 1 0
vt 1 1
vt 0 1
vt 0 0
vn 0 1 0 
usemtl PedestrianCrossing
f 85/85/22 86/86/22 87/87/22 88/88/22
v 520.4 57.13 -606.316
v 530.432 57.048 -608.157
v 529.711 57.108 -612.091
v 519.678 57.131 -610.251
vt 1 0
vt 1 1
vt 0 1
vt 0 0
vn 0 1 0 
usemtl PedestrianCrossing
f 89/89/23 90/90/23 91/91/23 92/92/23
v 1108.253 53.122 147.761
v 1116.44 53.129 158.115
v 1119.577 53.128 155.634
v 1111.39 53.12 145.28
vt 1 0
vt 1 1
vt 0 1
vt 0 0
vn 0 1 0 
usemtl PedestrianCrossing
f 93/93/24 94/94/24 95/95/24 96/96/24
v 1092.956 53.127 161.618
v 1092.402 53.115 148.429
v 1088.406 53.111 148.597
v 1088.96 53.126 161.786
vt 1 0
vt 1 1
vt 0 1
vt 0 0
vn 0 1 0 
usemtl PedestrianCrossing
f 97/97/25 98/98/25 99/99/25 100/100/25
v 555.311 55.247 -450.806
v 545.145 55.645 -449.977
v 545.47 55.519 -445.99
v 555.636 55.222 -446.82
vt 1 0
vt 1 1
vt 0 1
vt 0 0
vn 0 1 0 
usemtl PedestrianCrossing
f 101/101/26 102/102/26 103/103/26 104/104/26
v -358.967 47.944 1022.824
v -365.808 47.996 1015.258
v -368.775 47.868 1017.941
v -361.933 47.778 1025.507
vt 1 0
vt 1 1
vt 0 1
vt 0 0
vn 0 1 0 
usemtl PedestrianCrossing
f 105/105/27 106/106/27 107/107/27 108/108/27
v -146.956 51.823 -317.147
v -144.885 51.932 -309.213
v -141.014 52.008 -310.224
v -143.086 51.917 -318.158
vt 1 0
vt 1 1
vt 0 1
vt 0 0
vn 0 1 0 
usemtl PedestrianCrossing
f 109/109/28 110/110/28 111/111/28 112/112/28
v 558.92 52.126 -267.832
v 569.095 52.129 -268.544
v 568.816 52.129 -272.534
v 558.641 52.127 -271.822
vt 1 0
vt 1 1
vt 0 1
vt 0 0
vn 0 1 0 
usemtl PedestrianCrossing
f 113/113/29 114/114/29 115/115/29 116/116/29
v 513.623 44.1 412.12
v 503.601 44.006 410.225
v 502.858 44.027 414.155
v 512.88 44.105 416.05
vt 1 0
vt 1 1
vt 0 1
vt 0 0
vn 0 1 0 
usemtl PedestrianCrossing
f 117/117/30 118/118/30 119/119/30 120/120/30
v -93.002 51.13 -33.555
v -85.099 51.13 -35.74
v -86.164 51.13 -39.595
v -94.068 51.13 -37.411
vt 1 0
vt 1 1
vt 0 1
vt 0 0
vn 0 1 0 
usemtl PedestrianCrossing
f 121/121/31 122/122/31 123/123/31 124/124/31
v 496.941 58.167 -780.554
v 486.932 58.235 -778.586
v 487.704 58.206 -774.661
v 497.712 58.149 -776.629
vt 1 0
vt 1 1
vt 0 1
vt 0 0
vn 0 1 0 
usemtl PedestrianCrossing
f 125/125/32 126/126/32 127/127/32 128/128/32
v 1063.594 60.735 -668.645
v 1047.642 60.307 -671.467
v 1046.945 60.216 -667.529
v 1062.897 60.578 -664.706
vt 1 0
vt 1 1
vt 0 1
vt 0 0
vn 0 1 0 
usemtl PedestrianCrossing
f 129/129/33 130/130/33 131/131/33 132/132/33
v 1051.18 60.856 -682.457
v 1061.048 60.752 -669.609
v 1064.221 60.862 -672.046
v 1054.352 60.981 -684.894
vt 1 0
vt 1 1
vt 0 1
vt 0 0
vn 0 1 0 
usemtl PedestrianCrossing
f 133/133/34 134/134/34 135/135/34 136/136/34
v 463.298 42.132 680.105
v 453.279 42.13 678.192
v 452.529 42.131 682.122
v 462.548 42.136 684.034
vt 1 0
vt 1 1
vt 0 1
vt 0 0
vn 0 1 0 
usemtl PedestrianCrossing
f 137/137/35 138/138/35 139/139/35 140/140/35
v 458.948 42.173 648.624
v 468.963 42.143 650.557
v 469.721 42.15 646.629
v 459.706 42.199 644.697
vt 1 0
vt 1 1
vt 0 1
vt 0 0
vn 0 1 0 
usemtl PedestrianCrossing
f 141/141/36 142/142/36 143/143/36 144/144/36
v -719.987 41.974 999.504
v -710.812 42.09 995.048
v -712.559 42.088 991.45
v -721.735 41.977 995.906
vt 1 0
vt 1 1
vt 0 1
vt 0 0
vn 0 1 0 
usemtl PedestrianCrossing
f 145/145/37 146/146/37 147/147/37 148/148/37
v 194.758 48.163 358.92
v 196.065 48.189 348.804
v 192.098 48.21 348.292
v 190.791 48.176 358.408
vt 1 0
vt 1 1
vt 0 1
vt 0 0
vn 0 1 0 
usemtl PedestrianCrossing
f 149/149/38 150/150/38 151/151/38 152/152/38
v 1103.364 45.605 423.403
v 1107.456 45.407 422.458
v 1106.555 45.452 418.56
v 1102.463 45.665 419.506
vt 1 0
vt 1 1
vt 0 1
vt 0 0
vn 0 1 0 
usemtl PedestrianCrossing
f 153/153/39 154/154/39 155/155/39 156/156/39
v 414.692 39.785 891.306
v 420.782 39.503 892.468
v 421.531 39.729 888.539
v 415.441 39.896 887.377
vt 1 0
vt 1 1
vt 0 1
vt 0 0
vn 0 1 0 
usemtl PedestrianCrossing
f 157/157/40 158/158/40 159/159/40 160/160/40
v 1124.044 0.1 -884.945
v 1116 58.132 -886.536
v 1115.224 57.977 -882.612
v 1123.268 0.1 -881.021
vt 1 0
vt 1 1
vt 0 1
vt 0 0
vn 0 1 0 
usemtl PedestrianCrossing
f 161/161/41 162/162/41 163/163/41 164/164/41
v 806.55 51.123 599.746
v 800.527 51.129 598.277
v 799.579 51.126 602.163
v 805.602 51.107 603.632
vt 1 0
vt 1 1
vt 0 1
vt 0 0
vn 0 1 0 
usemtl PedestrianCrossing
f 165/165/42 166/166/42 167/167/42 168/168/42
v 338.913 61.243 -914.274
v 337.608 61.313 -908.213
v 341.518 61.25 -907.371
v 342.823 61.202 -913.432
vt 1 0
vt 1 1
vt 0 1
vt 0 0
vn 0 1 0 
usemtl PedestrianCrossing
f 169/169/43 170/170/43 171/171/43 172/172/43
v -37.492 53.129 -208.588
v -27.348 53.13 -200.143
v -24.788 53.13 -203.217
v -34.933 53.13 -211.663
vt 1 0
vt 1 1
vt 0 1
vt 0 0
vn 0 1 0 
usemtl PedestrianCrossing
f 173/173/44 174/174/44 175/175/44 176/176/44
v 1014.08 43.952 777.52
v 1016.18 44.03 782.277
v 1019.839 43.92 780.661
v 1017.739 43.816 775.904
vt 1 0
vt 1 1
vt 0 1
vt 0 0
vn 0 1 0 
usemtl PedestrianCrossing
f 177/177/45 178/178/45 179/179/45 180/180/45
v 448.52 60.141 -884.399
v 449.818 60.148 -890.462
v 445.907 60.161 -891.3
v 444.609 60.149 -885.237
vt 1 0
vt 1 1
vt 0 1
vt 0 0
vn 0 1 0 
usemtl PedestrianCrossing
f 181/181/46 182/182/46 183/183/46 184/184/46
v 264.604 52.129 -174.67
v 269.472 52.13 -176.498
v 268.066 52.13 -180.242
v 263.198 52.13 -178.415
vt 1 0
vt 1 1
vt 0 1
vt 0 0
vn 0 1 0 
usemtl PedestrianCrossing
f 185/185/47 186/186/47 187/187/47 188/188/47
v 484.814 43.13 566.512
v 474.804 43.13 564.555
v 474.036 43.13 568.48
v 484.047 43.129 570.438
vt 1 0
vt 1 1
vt 0 1
vt 0 0
vn 0 1 0 
usemtl PedestrianCrossing
f 189/189/48 190/190/48 191/191/48 192/192/48
v 479.312 43.102 541.323
v 489.334 43.092 543.221
v 490.079 43.006 539.291
v 480.057 43.015 537.393
vt 1 0
vt 1 1
vt 0 1
vt 0 0
vn 0 1 0 
usemtl PedestrianCrossing
f 193/193/49 194/194/49 195/195/49 196/196/49
v 17.57 49.335 804.733
v 13.096 50.393 807.382
v 15.133 50.897 810.824
v 19.608 50.103 808.175
vt 1 0
vt 1 1
vt 0 1
vt 0 0
vn 0 1 0 
usemtl PedestrianCrossing
f 197/197/50 198/198/50 199/199/50 200/200/50
v -108.979 50.13 594.896
v -103.496 50.129 592.002
v -105.363 50.128 588.464
v -110.846 50.13 591.358
vt 1 0
vt 1 1
vt 0 1
vt 0 0
vn 0 1 0 
usemtl PedestrianCrossing
f 201/201/51 202/202/51 203/203/51 204/204/51
v -93.651 50.132 610.342
v -98.981 50.136 613.51
v -96.938 50.144 616.948
v -91.608 50.136 613.78
vt 1 0
vt 1 1
vt 0 1
vt 0 0
vn 0 1 0 
usemtl PedestrianCrossing
f 205/205/52 206/206/52 207/207/52 208/208/52
v 144.839 64.186 -824.973
v 149.897 64.159 -823.768
v 150.824 64.153 -827.66
v 145.765 64.172 -828.864
vt 1 0
vt 1 1
vt 0 1
vt 0 0
vn 0 1 0 
usemtl PedestrianCrossing
f 209/209/53 210/210/53 211/211/53 212/212/53
v 842.929 46.924 831.1
v 844.124 46.448 836.161
v 848.017 46.459 835.241
v 846.822 46.908 830.18
vt 1 0
vt 1 1
vt 0 1
vt 0 0
vn 0 1 0 
usemtl PedestrianCrossing
f 213/213/54 214/214/54 215/215/54 216/216/54
v 505.792 41.858 904.874
v 506.08 41.928 910.066
v 510.074 42.168 909.844
v 509.785 42.04 904.652
vt 1 0
vt 1 1
vt 0 1
vt 0 0
vn 0 1 0 
usemtl PedestrianCrossing
f 217/217/55 218/218/55 219/219/55 220/220/55
v -149.773 51.129 84.718
v -152.604 51.126 77.022
v -156.358 51.126 78.403
v -153.527 51.129 86.099
vt 1 0
vt 1 1
vt 0 1
vt 0 0
vn 0 1 0 
usemtl PedestrianCrossing
f 221/221/56 222/222/56 223/223/56 224/224/56
v -246.291 50.079 -135.861
v -244.65 50.097 -127.827
v -240.731 50.11 -128.627
v -242.372 50.1 -136.661
vt 1 0
vt 1 1
vt 0 1
vt 0 0
vn 0 1 0 
usemtl PedestrianCrossing
f 225/225/57 226/226/57 227/227/57 228/228/57
v -237.109 50.122 -116.683
v -249.36 50.1 -111.769
v -247.871 50.109 -108.056
v -235.62 50.125 -112.971
vt 1 0
vt 1 1
vt 0 1
vt 0 0
vn 0 1 0 
usemtl PedestrianCrossing
f 229/229/58 230/230/58 231/231/58 232/232/58
v 467.602 42.905 602.843
v 477.634 42.367 604.687
v 478.357 42.45 600.753
v 468.325 42.977 598.909
vt 1 0
vt 1 1
vt 0 1
vt 0 0
vn 0 1 0 
usemtl PedestrianCrossing
f 233/233/59 234/234/59 235/235/59 236/236/59
v 578.103 57.362 -860.051
v 579.846 57.739 -868.063
v 575.937 57.818 -868.913
v 574.195 57.444 -860.901
vt 1 0
vt 1 1
vt 0 1
vt 0 0
vn 0 1 0 
usemtl PedestrianCrossing
f 237/237/60 238/238/60 239/239/60 240/240/60
v 615.023 57.481 -860.434
v 613.29 57.199 -852.42
v 617.2 57.213 -851.574
v 618.933 57.503 -859.589
vt 1 0
vt 1 1
vt 0 1
vt 0 0
vn 0 1 0 
usemtl PedestrianCrossing
f 241/241/61 242/242/61 243/243/61 244/244/61
v -203.903 49.133 294.316
v -205.319 49.141 304.418
v -201.358 49.138 304.973
v -199.941 49.132 294.872
vt 1 0
vt 1 1
vt 0 1
vt 0 0
vn 0 1 0 
usemtl PedestrianCrossing
f 245/245/62 246/246/62 247/247/62 248/248/62
v -189.898 50.13 -134.097
v -190.089 50.131 -142.295
v -194.088 50.131 -142.202
v -193.897 50.13 -134.004
vt 1 0
vt 1 1
vt 0 1
vt 0 0
vn 0 1 0 
usemtl PedestrianCrossing
f 249/249/63 250/250/63 251/251/63 252/252/63
v -182.371 50.131 -140.645
v -184.797 50.136 -132.812
v -180.976 50.178 -131.629
v -178.55 50.137 -139.462
vt 1 0
vt 1 1
vt 0 1
vt 0 0
vn 0 1 0 
usemtl PedestrianCrossing
f 253/253/64 254/254/64 255/255/64 256/256/64
v 149.793 48.975 352.637
v 151.363 49.091 342.559
v 147.41 49.129 341.943
v 145.841 49.094 352.022
vt 1 0
vt 1 1
vt 0 1
vt 0 0
vn 0 1 0 
usemtl PedestrianCrossing
f 257/257/65 258/258/65 259/259/65 260/260/65
v 1058.168 60.13 -632.361
v 1045.389 60.13 -622.405
v 1047.847 60.13 -619.25
v 1060.626 60.13 -629.206
vt 1 0
vt 1 1
vt 0 1
vt 0 0
vn 0 1 0 
usemtl PedestrianCrossing
f 261/261/66 262/262/66 263/263/66 264/264/66
v -444.274 51.11 -867.416
v -446.21 51.088 -872.242
v -449.923 51.065 -870.753
v -447.986 51.088 -865.927
vt 1 0
vt 1 1
vt 0 1
vt 0 0
vn 0 1 0 
usemtl PedestrianCrossing
f 265/265/67 266/266/67 267/267/67 268/268/67
v 440.329 41.965 746.031
v 450.348 41.791 747.943
v 451.098 41.93 744.014
v 441.079 42.067 742.102
vt 1 0
vt 1 1
vt 0 1
vt 0 0
vn 0 1 0 
usemtl PedestrianCrossing
f 269/269/68 270/270/68 271/271/68 272/272/68
v 443.607 41.135 783.304
v 433.587 41.14 781.397
v 432.839 41.134 785.326
v 442.859 41.132 787.234
vt 1 0
vt 1 1
vt 0 1
vt 0 0
vn 0 1 0 
usemtl PedestrianCrossing
f 273/273/69 274/274/69 275/275/69 276/276/69
v -72.355 49.131 322.03
v -70.999 49.131 311.921
v -74.963 49.131 311.389
v -76.319 49.132 321.499
vt 1 0
vt 1 1
vt 0 1
vt 0 0
vn 0 1 0 
usemtl PedestrianCrossing
f 277/277/70 278/278/70 279/279/70 280/280/70
v -35.29 49.397 316.914
v -36.759 49.236 327.007
v -32.8 49.191 327.583
v -31.331 49.23 317.49
vt 1 0
vt 1 1
vt 0 1
vt 0 0
vn 0 1 0 
usemtl PedestrianCrossing
f 281/281/71 282/282/71 283/283/71 284/284/71
v 827.644 65.079 -828.058
v 822.119 65.03 -830.871
v 820.304 65.001 -827.307
v 825.829 65.061 -824.493
vt 1 0
vt 1 1
vt 0 1
vt 0 0
vn 0 1 0 
usemtl PedestrianCrossing
f 285/285/72 286/286/72 287/287/72 288/288/72
v -128.76 51.121 -85.478
v -138.773 51.111 -94.08
v -141.379 51.097 -91.046
v -131.367 51.116 -82.444
vt 1 0
vt 1 1
vt 0 1
vt 0 0
vn 0 1 0 
usemtl PedestrianCrossing
f 289/289/73 290/290/73 291/291/73 292/292/73
v 805.124 64.272 -805.651
v 806.878 64.412 -813.661
v 802.97 64.23 -814.517
v 801.217 64.174 -806.506
vt 1 0
vt 1 1
vt 0 1
vt 0 0
vn 0 1 0 
usemtl PedestrianCrossing
f 293/293/74 294/294/74 295/295/74 296/296/74
v -14.024 49.15 319.766
v -15.358 49.136 329.878
v -11.392 49.134 330.401
v -10.058 49.151 320.289
vt 1 0
vt 1 1
vt 0 1
vt 0 0
vn 0 1 0 
usemtl PedestrianCrossing
f 297/297/75 298/298/75 299/299/75 300/300/75
v -687.446 44.727 -814.977
v -685.716 44.854 -806.961
v -681.806 44.951 -807.805
v -683.536 44.899 -815.82
vt 1 0
vt 1 1
vt 0 1
vt 0 0
vn 0 1 0 
usemtl PedestrianCrossing
f 301/301/76 302/302/76 303/303/76 304/304/76
v 289.201 42.578 942.524
v 289.32 42.401 948.723
v 293.319 42.306 948.646
v 293.2 42.364 942.447
vt 1 0
vt 1 1
vt 0 1
vt 0 0
vn 0 1 0 
usemtl PedestrianCrossing
f 305/305/77 306/306/77 307/307/77 308/308/77
v 37.896 51.344 849.252
v 42.36 51.379 846.584
v 40.307 51.281 843.151
v 35.844 51.311 845.819
vt 1 0
vt 1 1
vt 0 1
vt 0 0
vn 0 1 0 
usemtl PedestrianCrossing
f 309/309/78 310/310/78 311/311/78 312/312/78
v -643.147 46.046 -824.624
v -641.376 46.049 -816.617
v -637.47 46.083 -817.482
v -639.242 46.08 -825.488
vt 1 0
vt 1 1
vt 0 1
vt 0 0
vn 0 1 0 
usemtl PedestrianCrossing
f 313/313/79 314/314/79 315/315/79 316/316/79
v 658.017 57.942 -851.449
v 656.421 57.579 -843.406
v 660.344 57.726 -842.627
v 661.941 58.007 -850.67
vt 1 0
vt 1 1
vt 0 1
vt 0 0
vn 0 1 0 
usemtl PedestrianCrossing
f 317/317/80 318/318/80 319/319/80 320/320/80
