mtllib materials.mtl
v -238.277 45.213 -38.097
v -244.369 45.286 -39.25
v -245.113 45.34 -35.32
v -239.021 45.276 -34.167
vt 1 0
vt 1 1
vt 0 1
vt 0 0
vn 0 1 0 
usemtl PedestrianCrossing
f 1/1/1 2/2/1 3/3/1 4/4/1
v -359.844 49.385 -165.566
v -362.879 49.464 -161.343
v -359.631 49.331 -159.009
v -356.596 49.29 -163.231
vt 1 0
vt 1 1
vt 0 1
vt 0 0
vn 0 1 0 
usemtl PedestrianCrossing
f 5/5/2 6/6/2 7/7/2 8/8/2
v -392.75 50.164 -180.991
v -390.075 50.146 -185.45
v -393.505 50.137 -187.508
v -396.18 50.118 -183.049
vt 1 0
vt 1 1
vt 0 1
vt 0 0
vn 0 1 0 
usemtl PedestrianCrossing
f 9/9/3 10/10/3 11/11/3 12/12/3
v -566.299 0.1 -162.329
v -565.813 0.1 -157.151
v -561.831 0.1 -157.525
v -562.316 0.1 -162.702
vt 1 0
vt 1 1
vt 0 1
vt 0 0
vn 0 1 0 
usemtl PedestrianCrossing
f 13/13/4 14/14/4 15/15/4 16/16/4
v 506.01 14.894 139.876
v 508.471 13.235 144.457
v 511.994 13.2 142.564
v 509.533 14.723 137.983
vt 1 0
vt 1 1
vt 0 1
vt 0 0
vn 0 1 0 
usemtl PedestrianCrossing
f 17/17/5 18/18/5 19/19/5 20/20/5
v -237.88 46.212 73.073
v -242.95 46.312 76.643
v -240.647 46.211 79.913
v -235.577 46.063 76.344
vt 1 0
vt 1 1
vt 0 1
vt 0 0
vn 0 1 0 
usemtl PedestrianCrossing
f 21/21/6 22/22/6 23/23/6 24/24/6
v 584.367 26.588 -15.307
v 584.119 28.162 -20.501
v 580.124 28.066 -20.31
v 580.371 26.557 -15.116
vt 1 0
vt 1 1
vt 0 1
vt 0 0
vn 0 1 0 
usemtl PedestrianCrossing
f 25/25/7 26/26/7 27/27/7 28/28/7
v 620.056 28.376 -22.33
v 620.337 26.409 -17.138
v 624.331 26.54 -17.354
v 624.05 28.496 -22.546
vt 1 0
vt 1 1
vt 0 1
vt 0 0
vn 0 1 0 
usemtl PedestrianCrossing
f 29/29/8 30/30/8 31/31/8 32/32/8
v 755.528 35.261 -188.675
v 759.387 34.742 -192.16
v 756.706 34.114 -195.129
v 752.847 34.772 -191.643
vt 1 0
vt 1 1
vt 0 1
vt 0 0
vn 0 1 0 
usemtl PedestrianCrossing
f 33/33/9 34/34/9 35/35/9 36/36/9
v 738.333 34.956 -68.182
v 733.368 36.98 -69.729
v 732.179 36.882 -65.91
v 737.144 34.867 -64.363
vt 1 0
vt 1 1
vt 0 1
vt 0 0
vn 0 1 0 
usemtl PedestrianCrossing
f 37/37/10 38/38/10 39/39/10 40/40/10
v 69.599 51.027 -480.484
v 70.751 51.4 -475.414
v 74.652 50.81 -476.3
v 73.499 50.15 -481.371
vt 1 0
vt 1 1
vt 0 1
vt 0 0
vn 0 1 0 
usemtl PedestrianCrossing
f 41/41/11 42/42/11 43/43/11 44/44/11
v 35.441 54.887 -467.996
v 34.456 53.457 -473.102
v 30.528 53.461 -472.344
v 31.514 54.923 -467.238
vt 1 0
vt 1 1
vt 0 1
vt 0 0
vn 0 1 0 
usemtl PedestrianCrossing
f 45/45/12 46/46/12 47/47/12 48/48/12
v 73.611 19.781 469.766
v 78.949 18.785 472.921
v 80.984 18.765 469.477
v 75.646 19.864 466.323
vt 1 0
vt 1 1
vt 0 1
vt 0 0
vn 0 1 0 
usemtl PedestrianCrossing
f 49/49/13 50/50/13 51/51/13 52/52/13
v 521.614 22.835 -356.407
v 518.195 24.241 -352.489
v 521.21 24.038 -349.859
v 524.628 22.67 -353.778
vt 1 0
vt 1 1
vt 0 1
vt 0 0
vn 0 1 0 
usemtl PedestrianCrossing
f 53/53/14 54/54/14 55/55/14 56/56/14
v 469.023 27.68 -397.597
v 472.787 25.923 -401.184
v 470.028 26.142 -404.08
v 466.263 27.853 -400.493
vt 1 0
vt 1 1
vt 0 1
vt 0 0
vn 0 1 0 
usemtl PedestrianCrossing
f 57/57/15 58/58/15 59/59/15 60/60/15
v -106.91 38.269 148.118
v -102.297 37.859 143.976
v -104.97 38.012 141
v -109.583 38.369 145.142
vt 1 0
vt 1 1
vt 0 1
vt 0 0
vn 0 1 0 
usemtl PedestrianCrossing
f 61/61/16 62/62/16 63/63/16 64/64/16
v -79.337 36.171 172.022
v -84.309 37.096 175.726
v -81.919 36.969 178.934
v -76.947 35.962 175.229
vt 1 0
vt 1 1
vt 0 1
vt 0 0
vn 0 1 0 
usemtl PedestrianCrossing
f 65/65/17 66/66/17 67/67/17 68/68/17
v -85.617 59.186 -367.28
v -88.737 58.851 -371.44
v -91.937 58.858 -369.04
v -88.817 59.345 -364.88
vt 1 0
vt 1 1
vt 0 1
vt 0 0
vn 0 1 0 
usemtl PedestrianCrossing
f 69/69/18 70/70/18 71/71/18 72/72/18
v -59.672 57.847 -392.77
v -56.639 58.26 -388.546
v -53.39 57.942 -390.878
v -56.423 57.637 -395.102
vt 1 0
vt 1 1
vt 0 1
vt 0 0
vn 0 1 0 
usemtl PedestrianCrossing
f 73/73/19 74/74/19 75/75/19 76/76/19
v 530.619 24.73 7.171
v 535.487 23.94 9.001
v 536.894 24.28 5.256
v 532.027 25.15 3.427
vt 1 0
vt 1 1
vt 0 1
vt 0 0
vn 0 1 0 
usemtl PedestrianCrossing
f 77/77/20 78/78/20 79/79/20 80/80/20
v 491.301 19.104 117.633
v 486.539 20.133 115.545
v 484.932 20.172 119.208
v 489.694 19.09 121.297
vt 1 0
vt 1 1
vt 0 1
vt 0 0
vn 0 1 0 
usemtl PedestrianCrossing
f 81/81/21 82/82/21 83/83/21 84/84/21
v -420.51 50.231 107.98
v -419.83 50.191 114.646
v -415.851 50.091 114.24
v -416.531 50.118 107.574
vt 1 0
vt 1 1
vt 0 1
vt 0 0
vn 0 1 0 
usemtl PedestrianCrossing
f 85/85/22 86/86/22 87/87/22 88/88/22
v -455.564 51.701 118.565
v -456.345 51.668 111.91
v -460.318 51.7 112.376
v -459.537 51.745 119.031
vt 1 0
vt 1 1
vt 0 1
vt 0 0
vn 0 1 0 
usemtl PedestrianCrossing
f 89/89/23 90/90/23 91/91/23 92/92/23
v -143.825 54.359 -357.25
v -143.115 55.662 -352.099
v -139.152 55.764 -352.646
v -139.863 54.449 -357.797
vt 1 0
vt 1 1
vt 0 1
vt 0 0
vn 0 1 0 
usemtl PedestrianCrossing
f 93/93/24 94/94/24 95/95/24 96/96/24
v -229.816 56.513 -337.717
v -231.214 55.487 -342.726
v -235.067 55.327 -341.651
v -233.669 56.319 -336.642
vt 1 0
vt 1 1
vt 0 1
vt 0 0
vn 0 1 0 
usemtl PedestrianCrossing
f 97/97/25 98/98/25 99/99/25 100/100/25
v -264.345 53.85 -297.279
v -269.004 53.226 -299.589
v -270.781 52.913 -296.006
v -266.123 53.676 -293.695
vt 1 0
vt 1 1
vt 0 1
vt 0 0
vn 0 1 0 
usemtl PedestrianCrossing
f 101/101/26 102/102/26 103/103/26 104/104/26
v -473.078 52.352 121.783
v -474.286 52.542 115.193
v -478.221 52.631 115.914
v -477.012 52.444 122.504
vt 1 0
vt 1 1
vt 0 1
vt 0 0
vn 0 1 0 
usemtl PedestrianCrossing
f 105/105/27 106/106/27 107/107/27 108/108/27
v -507.67 54.591 119.475
v -505.474 54.442 125.805
v -501.695 54.176 124.494
v -503.891 54.331 118.164
vt 1 0
vt 1 1
vt 0 1
vt 0 0
vn 0 1 0 
usemtl PedestrianCrossing
f 109/109/28 110/110/28 111/111/28 112/112/28
v -612.092 0.1 90.048
v -615.532 0.1 83.723
v -619.046 0.1 85.634
v -615.606 0.1 91.959
vt 1 0
vt 1 1
vt 0 1
vt 0 0
vn 0 1 0 
usemtl PedestrianCrossing
f 113/113/29 114/114/29 115/115/29 116/116/29
v 137.575 22.193 -520.418
v 140.99 23.243 -516.497
v 144.007 22.233 -519.124
v 140.592 21.272 -523.045
vt 1 0
vt 1 1
vt 0 1
vt 0 0
vn 0 1 0 
usemtl PedestrianCrossing
f 117/117/30 118/118/30 119/119/30 120/120/30
v -313.175 48.063 88.492
v -312.136 47.959 95.111
v -308.184 47.835 94.49
v -309.224 47.993 87.871
vt 1 0
vt 1 1
vt 0 1
vt 0 0
vn 0 1 0 
usemtl PedestrianCrossing
f 121/121/31 122/122/31 123/123/31 124/124/31
v -183.634 42.551 103.489
v -181.673 42.94 97.607
v -185.468 43.116 96.342
v -187.429 42.744 102.224
vt 1 0
vt 1 1
vt 0 1
vt 0 0
vn 0 1 0 
usemtl PedestrianCrossing
f 125/125/32 126/126/32 127/127/32 128/128/32
v -147.375 40.377 107.748
v -148.928 40.238 113.75
v -145.055 39.965 114.752
v -143.502 40.087 108.75
vt 1 0
vt 1 1
vt 0 1
vt 0 0
vn 0 1 0 
usemtl PedestrianCrossing
f 129/129/33 130/130/33 131/131/33 132/132/33
v -357.126 49.272 -158.093
v -360.997 49.336 -154.622
v -358.327 49.256 -151.644
v -354.456 49.211 -155.115
vt 1 0
vt 1 1
vt 0 1
vt 0 0
vn 0 1 0 
usemtl PedestrianCrossing
f 133/133/34 134/134/34 135/135/34 136/136/34
v -136.431 39.569 119.746
v -132.536 39.245 114.922
v -135.649 39.469 112.409
v -139.543 39.645 117.234
vt 1 0
vt 1 1
vt 0 1
vt 0 0
vn 0 1 0 
usemtl PedestrianCrossing
f 137/137/35 138/138/35 139/139/35 140/140/35
v -527.049 50.015 -133.129
v -529.097 48.685 -137.909
v -532.774 49.619 -136.333
v -530.725 50.742 -131.553
vt 1 0
vt 1 1
vt 0 1
vt 0 0
vn 0 1 0 
usemtl PedestrianCrossing
f 141/141/36 142/142/36 143/143/36 144/144/36
v -436.643 47.731 -178.387
v -434.523 49.026 -173.638
v -430.871 49.251 -175.269
v -432.99 48.012 -180.017
vt 1 0
vt 1 1
vt 0 1
vt 0 0
vn 0 1 0 
usemtl PedestrianCrossing
f 145/145/37 146/146/37 147/147/37 148/148/37
v -306.013 48.627 -194.982
v -309.036 48.777 -199.213
v -312.291 48.773 -196.888
v -309.268 48.514 -192.657
vt 1 0
vt 1 1
vt 0 1
vt 0 0
vn 0 1 0 
usemtl PedestrianCrossing
f 149/149/38 150/150/38 151/151/38 152/152/38
v -281.49 51.342 -260.67
v -276.463 52.05 -259.337
v -275.439 52.259 -263.204
v -280.465 51.523 -264.536
vt 1 0
vt 1 1
vt 0 1
vt 0 0
vn 0 1 0 
usemtl PedestrianCrossing
f 153/153/39 154/154/39 155/155/39 156/156/39
v 255.157 36.994 -472.442
v 254.807 39.276 -467.254
v 258.798 39.248 -466.984
v 259.148 36.914 -472.173
vt 1 0
vt 1 1
vt 0 1
vt 0 0
vn 0 1 0 
usemtl PedestrianCrossing
f 157/157/40 158/158/40 159/159/40 160/160/40
v 161.313 42.611 -470.328
v 161.441 40.206 -475.527
v 157.442 40.149 -475.626
v 157.314 42.71 -470.427
vt 1 0
vt 1 1
vt 0 1
vt 0 0
vn 0 1 0 
usemtl PedestrianCrossing
f 161/161/41 162/162/41 163/163/41 164/164/41
v -617.195 0.1 89.352
v -614.706 0.1 96.108
v -610.952 0.1 94.725
v -613.441 0.1 87.969
vt 1 0
vt 1 1
vt 0 1
vt 0 0
vn 0 1 0 
usemtl PedestrianCrossing
f 165/165/42 166/166/42 167/167/42 168/168/42
v 273.595 0.662 432.306
v 268.917 1.378 426.833
v 265.876 1.257 429.433
v 270.555 0.614 434.905
vt 1 0
vt 1 1
vt 0 1
vt 0 0
vn 0 1 0 
usemtl PedestrianCrossing
f 169/169/43 170/170/43 171/171/43 172/172/43
v 20.514 39.786 304.106
v 15.566 42.448 307.843
v 17.977 41.592 311.035
v 22.924 38.049 307.298
vt 1 0
vt 1 1
vt 0 1
vt 0 0
vn 0 1 0 
usemtl PedestrianCrossing
f 173/173/44 174/174/44 175/175/44 176/176/44
v -223.895 45.285 82.716
v -227.601 45.336 87.686
v -224.395 45.117 90.077
v -220.688 45.024 85.107
vt 1 0
vt 1 1
vt 0 1
vt 0 0
vn 0 1 0 
usemtl PedestrianCrossing
f 177/177/45 178/178/45 179/179/45 180/180/45
v 557.933 22.044 -318.193
v 554.256 21.932 -321.87
v 551.428 23.145 -319.042
v 555.105 23.232 -315.365
vt 1 0
vt 1 1
vt 0 1
vt 0 0
vn 0 1 0 
usemtl PedestrianCrossing
f 181/181/46 182/182/46 183/183/46 184/184/46
v 536.344 13.506 -368.933
v 540.394 10.014 -372.196
v 537.884 9.552 -375.311
v 533.835 13.125 -372.048
vt 1 0
vt 1 1
vt 0 1
vt 0 0
vn 0 1 0 
usemtl PedestrianCrossing
f 185/185/47 186/186/47 187/187/47 188/188/47
v -344.501 49.168 -174.883
v -346.92 49.197 -179.486
v -350.461 49.228 -177.625
v -348.041 49.193 -173.022
vt 1 0
vt 1 1
vt 0 1
vt 0 0
vn 0 1 0 
usemtl PedestrianCrossing
f 189/189/48 190/190/48 191/191/48 192/192/48
v -308.299 47.84 95.033
v -308.828 47.971 88.353
v -312.815 48.056 88.669
v -312.287 47.963 95.348
vt 1 0
vt 1 1
vt 0 1
vt 0 0
vn 0 1 0 
usemtl PedestrianCrossing
f 193/193/49 194/194/49 195/195/49 196/196/49
v -6.259 56.61 -453.579
v -2.039 57.055 -450.541
v 0.298 56.79 -453.787
v -3.922 56.318 -456.825
vt 1 0
vt 1 1
vt 0 1
vt 0 0
vn 0 1 0 
usemtl PedestrianCrossing
f 197/197/50 198/198/50 199/199/50 200/200/50
v 171.459 13.016 417.86
v 178.576 12.6 416.769
v 177.97 12.951 412.815
v 170.853 13.303 413.906
vt 1 0
vt 1 1
vt 0 1
vt 0 0
vn 0 1 0 
usemtl PedestrianCrossing
f 201/201/51 202/202/51 203/203/51 204/204/51
v 298.957 29.096 -495.085
v 298.237 27.22 -500.234
v 294.276 26.929 -499.681
v 294.996 28.881 -494.531
vt 1 0
vt 1 1
vt 0 1
vt 0 0
vn 0 1 0 
usemtl PedestrianCrossing
f 205/205/52 206/206/52 207/207/52 208/208/52
v 443.288 9.932 -494.05
v 442.373 12.523 -488.931
v 446.311 9.879 -488.228
v 447.225 7.644 -493.347
vt 1 0
vt 1 1
vt 0 1
vt 0 0
vn 0 1 0 
usemtl PedestrianCrossing
f 209/209/53 210/210/53 211/211/53 212/212/53
v 619.391 29.18 -252.627
v 622.067 27.492 -257.085
v 618.637 27.39 -259.143
v 615.961 29.29 -254.684
vt 1 0
vt 1 1
vt 0 1
vt 0 0
vn 0 1 0 
usemtl PedestrianCrossing
f 213/213/54 214/214/54 215/215/54 216/216/54
