mtllib materials.mtl
v -237.983 45.201 -38.042
v -242.896 45.254 -38.971
v -243.639 45.308 -35.041
v -238.726 45.265 -34.111
vt 1 0
vt 1 1
vt 0 1
vt 0 0
vn 0 1 0 
usemtl PedestrianCrossing
f 1/1/1 2/2/1 3/3/1 4/4/1
v -359.669 49.372 -165.809
v -362.003 49.415 -162.561
v -358.755 49.308 -160.227
v -356.421 49.278 -163.475
vt 1 0
vt 1 1
vt 0 1
vt 0 0
vn 0 1 0 
usemtl PedestrianCrossing
f 5/5/2 6/6/2 7/7/2 8/8/2
v -392.904 50.154 -180.734
v -390.846 50.141 -184.164
v -394.276 50.134 -186.222
v -396.334 50.135 -182.792
vt 1 0
vt 1 1
vt 0 1
vt 0 0
vn 0 1 0 
usemtl PedestrianCrossing
f 9/9/3 10/10/3 11/11/3 12/12/3
v -566.327 0.09 -162.627
v -565.953 0.09 -158.645
v -561.971 0.09 -159.018
v -562.344 0.09 -163.001
vt 1 0
vt 1 1
vt 0 1
vt 0 0
vn 0 1 0 
usemtl PedestrianCrossing
f 13/13/4 14/14/4 15/15/4 16/16/4
v 505.868 14.947 139.612
v 507.761 13.821 143.136
v 511.284 13.734 141.242
v 509.391 14.772 137.719
vt 1 0
vt 1 1
vt 0 1
vt 0 0
vn 0 1 0 
usemtl PedestrianCrossing
f 17/17/5 18/18/5 19/19/5 20/20/5
v -237.635 46.196 72.901
v -241.723 46.282 75.779
v -239.42 46.165 79.05
v -235.332 46.048 76.171
vt 1 0
vt 1 1
vt 0 1
vt 0 0
vn 0 1 0 
usemtl PedestrianCrossing
f 21/21/6 22/22/6 23/23/6 24/24/6
v 584.381 26.496 -15.007
v 584.191 27.681 -19.002
v 580.195 27.558 -18.812
v 580.385 26.47 -14.817
vt 1 0
vt 1 1
vt 0 1
vt 0 0
vn 0 1 0 
usemtl PedestrianCrossing
f 25/25/7 26/26/7 27/27/7 28/28/7
v 620.039 28.478 -22.63
v 620.256 26.965 -18.635
v 624.25 27.083 -18.852
v 624.033 28.599 -22.846
vt 1 0
vt 1 1
vt 0 1
vt 0 0
vn 0 1 0 
usemtl PedestrianCrossing
f 29/29/8 30/30/8 31/31/8 32/32/8
v 755.305 35.283 -188.474
v 758.274 34.877 -191.155
v 755.593 34.313 -194.123
v 752.624 34.797 -191.442
vt 1 0
vt 1 1
vt 0 1
vt 0 0
vn 0 1 0 
usemtl PedestrianCrossing
f 33/33/9 34/34/9 35/35/9 36/36/9
v 738.62 34.86 -68.093
v 734.801 36.455 -69.283
v 733.611 36.396 -65.464
v 737.43 34.753 -64.274
vt 1 0
vt 1 1
vt 0 1
vt 0 0
vn 0 1 0 
usemtl PedestrianCrossing
f 37/37/10 38/38/10 39/39/10 40/40/10
v 69.532 50.987 -480.777
v 70.419 51.306 -476.876
v 74.319 50.627 -477.763
v 73.433 50.101 -481.663
vt 1 0
vt 1 1
vt 0 1
vt 0 0
vn 0 1 0 
usemtl PedestrianCrossing
f 41/41/11 42/42/11 43/43/11 44/44/11
v 35.498 54.948 -467.702
v 34.74 53.891 -471.629
v 30.813 53.915 -470.871
v 31.571 54.985 -466.944
vt 1 0
vt 1 1
vt 0 1
vt 0 0
vn 0 1 0 
usemtl PedestrianCrossing
f 45/45/12 46/46/12 47/47/12 48/48/12
v 73.353 19.811 469.614
v 77.657 19.024 472.157
v 79.692 19.011 468.714
v 75.387 19.901 466.17
vt 1 0
vt 1 1
vt 0 1
vt 0 0
vn 0 1 0 
usemtl PedestrianCrossing
f 49/49/13 50/50/13 51/51/13 52/52/13
v 521.811 22.737 -356.633
v 519.182 23.804 -353.619
v 522.196 23.645 -350.989
v 524.825 22.596 -354.004
vt 1 0
vt 1 1
vt 0 1
vt 0 0
vn 0 1 0 
usemtl PedestrianCrossing
f 53/53/14 54/54/14 55/55/14 56/56/14
v 468.806 27.797 -397.39
v 471.701 26.416 -400.15
v 468.942 26.608 -403.045
v 466.046 27.965 -400.286
vt 1 0
vt 1 1
vt 0 1
vt 0 0
vn 0 1 0 
usemtl PedestrianCrossing
f 57/57/15 58/58/15 59/59/15 60/60/15
v -107.133 38.278 148.319
v -103.413 37.971 144.978
v -106.086 38.116 142.002
v -109.806 38.371 145.343
vt 1 0
vt 1 1
vt 0 1
vt 0 0
vn 0 1 0 
usemtl PedestrianCrossing
f 61/61/16 62/62/16 63/63/16 64/64/16
v -79.096 36.117 171.843
v -83.106 36.845 174.83
v -80.716 36.719 178.038
v -76.706 35.884 175.05
vt 1 0
vt 1 1
vt 0 1
vt 0 0
vn 0 1 0 
usemtl PedestrianCrossing
f 65/65/17 66/66/17 67/67/17 68/68/17
v -85.437 59.21 -367.04
v -87.837 58.95 -370.24
v -91.037 58.991 -367.84
v -88.637 59.349 -364.64
vt 1 0
vt 1 1
vt 0 1
vt 0 0
vn 0 1 0 
usemtl PedestrianCrossing
f 69/69/18 70/70/18 71/71/18 72/72/18
v -59.847 57.806 -393.013
v -57.514 58.153 -389.764
v -54.265 57.882 -392.097
v -56.598 57.595 -395.346
vt 1 0
vt 1 1
vt 0 1
vt 0 0
vn 0 1 0 
usemtl PedestrianCrossing
f 73/73/19 74/74/19 75/75/19 76/76/19
v 530.338 24.757 7.066
v 534.083 24.181 8.473
v 535.49 24.512 4.729
v 531.746 25.179 3.321
vt 1 0
vt 1 1
vt 0 1
vt 0 0
vn 0 1 0 
usemtl PedestrianCrossing
f 77/77/20 78/78/20 79/79/20 80/80/20
v 491.575 19.03 117.754
v 487.912 19.851 116.147
v 486.305 19.878 119.81
v 489.968 18.976 121.417
vt 1 0
vt 1 1
vt 0 1
vt 0 0
vn 0 1 0 
usemtl PedestrianCrossing
f 81/81/21 82/82/21 83/83/21 84/84/21
v -420.541 50.223 107.682
v -419.983 50.186 113.153
v -416.003 50.078 112.747
v -416.562 50.111 107.276
vt 1 0
vt 1 1
vt 0 1
vt 0 0
vn 0 1 0 
usemtl PedestrianCrossing
f 85/85/22 86/86/22 87/87/22 88/88/22
v -455.53 51.697 118.863
v -456.17 51.653 113.4
v -460.143 51.681 113.866
v -459.502 51.741 119.329
vt 1 0
vt 1 1
vt 0 1
vt 0 0
vn 0 1 0 
usemtl PedestrianCrossing
f 89/89/23 90/90/23 91/91/23 92/92/23
v -143.866 54.271 -357.547
v -143.32 55.338 -353.585
v -139.357 55.437 -354.132
v -139.904 54.359 -358.094
vt 1 0
vt 1 1
vt 0 1
vt 0 0
vn 0 1 0 
usemtl PedestrianCrossing
f 93/93/24 94/94/24 95/95/24 96/96/24
v -229.735 56.57 -337.428
v -230.811 55.821 -341.281
v -234.663 55.647 -340.206
v -233.588 56.38 -336.353
vt 1 0
vt 1 1
vt 0 1
vt 0 0
vn 0 1 0 
usemtl PedestrianCrossing
f 97/97/25 98/98/25 99/99/25 100/100/25
v -264.077 53.888 -297.146
v -267.66 53.405 -298.923
v -269.437 53.098 -295.339
v -265.854 53.716 -293.562
vt 1 0
vt 1 1
vt 0 1
vt 0 0
vn 0 1 0 
usemtl PedestrianCrossing
f 101/101/26 102/102/26 103/103/26 104/104/26
v -473.023 52.342 122.078
v -474.016 52.472 116.668
v -477.95 52.564 117.39
v -476.958 52.435 122.8
vt 1 0
vt 1 1
vt 0 1
vt 0 0
vn 0 1 0 
usemtl PedestrianCrossing
f 105/105/27 106/106/27 107/107/27 108/108/27
v -507.768 54.63 119.192
v -505.965 54.44 124.388
v -502.186 54.173 123.077
v -503.989 54.361 117.881
vt 1 0
vt 1 1
vt 0 1
vt 0 0
vn 0 1 0 
usemtl PedestrianCrossing
f 109/109/28 110/110/28 111/111/28 112/112/28
v -611.949 0.09 90.312
v -614.816 0.09 85.041
v -618.33 0.09 86.952
v -615.463 0.09 92.223
vt 1 0
vt 1 1
vt 0 1
vt 0 0
vn 0 1 0 
usemtl PedestrianCrossing
f 113/113/29 114/114/29 115/115/29 116/116/29
v 137.378 22.106 -520.644
v 140.005 22.911 -517.628
v 143.022 21.954 -520.255
v 140.395 21.205 -523.271
vt 1 0
vt 1 1
vt 0 1
vt 0 0
vn 0 1 0 
usemtl PedestrianCrossing
f 117/117/30 118/118/30 119/119/30 120/120/30
v -313.222 48.056 88.195
v -312.369 47.964 93.629
v -308.417 47.818 93.008
v -309.27 47.989 87.575
vt 1 0
vt 1 1
vt 0 1
vt 0 0
vn 0 1 0 
usemtl PedestrianCrossing
f 121/121/31 122/122/31 123/123/31 124/124/31
v -183.729 42.527 103.774
v -182.148 42.818 99.03
v -185.942 43.046 97.765
v -187.524 42.718 102.509
vt 1 0
vt 1 1
vt 0 1
vt 0 0
vn 0 1 0 
usemtl PedestrianCrossing
f 125/125/32 126/126/32 127/127/32 128/128/32
v -147.3 40.383 107.457
v -148.552 40.232 112.298
v -144.68 39.906 113.3
v -143.427 40.092 108.459
vt 1 0
vt 1 1
vt 0 1
vt 0 0
vn 0 1 0 
usemtl PedestrianCrossing
f 129/129/33 130/130/33 131/131/33 132/132/33
v -356.902 49.26 -158.293
v -359.881 49.305 -155.623
v -357.21 49.227 -152.645
v -354.232 49.199 -155.315
vt 1 0
vt 1 1
vt 0 1
vt 0 0
vn 0 1 0 
usemtl PedestrianCrossing
f 133/133/34 134/134/34 135/135/34 136/136/34
v -136.619 39.578 119.98
v -133.479 39.307 116.089
v -136.591 39.498 113.577
v -139.732 39.647 117.467
vt 1 0
vt 1 1
vt 0 1
vt 0 0
vn 0 1 0 
usemtl PedestrianCrossing
f 137/137/35 138/138/35 139/139/35 140/140/35
v -526.931 50.076 -132.853
v -528.506 49.024 -136.53
v -532.183 49.982 -134.954
v -530.607 50.782 -131.278
vt 1 0
vt 1 1
vt 0 1
vt 0 0
vn 0 1 0 
usemtl PedestrianCrossing
f 141/141/36 142/142/36 143/143/36 144/144/36
v -436.765 47.643 -178.661
v -435.135 48.639 -175.008
v -431.482 48.88 -176.638
v -433.112 47.93 -180.291
vt 1 0
vt 1 1
vt 0 1
vt 0 0
vn 0 1 0 
usemtl PedestrianCrossing
f 145/145/37 146/146/37 147/147/37 148/148/37
v -305.839 48.606 -194.738
v -308.164 48.732 -197.993
v -311.419 48.727 -195.668
v -309.094 48.494 -192.413
vt 1 0
vt 1 1
vt 0 1
vt 0 0
vn 0 1 0 
usemtl PedestrianCrossing
f 149/149/38 150/150/38 151/151/38 152/152/38
v -281.78 51.297 -260.746
v -277.913 51.825 -259.722
v -276.889 52.121 -263.588
v -280.755 51.476 -264.613
vt 1 0
vt 1 1
vt 0 1
vt 0 0
vn 0 1 0 
usemtl PedestrianCrossing
f 153/153/39 154/154/39 155/155/39 156/156/39
v 255.177 36.862 -472.741
v 254.908 38.545 -468.75
v 258.899 38.485 -468.481
v 259.168 36.782 -472.472
vt 1 0
vt 1 1
vt 0 1
vt 0 0
vn 0 1 0 
usemtl PedestrianCrossing
f 157/157/40 158/158/40 159/159/40 160/160/40
v 161.306 42.741 -470.029
v 161.404 40.963 -474.027
v 157.405 40.929 -474.126
v 157.307 42.847 -470.127
vt 1 0
vt 1 1
vt 0 1
vt 0 0
vn 0 1 0 
usemtl PedestrianCrossing
f 161/161/41 162/162/41 163/163/41 164/164/41
v -617.298 0.09 89.071
v -615.224 0.09 94.701
v -611.471 0.09 93.318
v -613.545 0.09 87.688
vt 1 0
vt 1 1
vt 0 1
vt 0 0
vn 0 1 0 
usemtl PedestrianCrossing
f 165/165/42 166/166/42 167/167/42 168/168/42
v 273.79 0.626 432.534
v 269.891 1.211 427.974
v 266.851 1.106 430.573
v 270.75 0.586 435.133
vt 1 0
vt 1 1
vt 0 1
vt 0 0
vn 0 1 0 
usemtl PedestrianCrossing
f 169/169/43 170/170/43 171/171/43 172/172/43
v 20.753 39.62 303.925
v 16.763 41.95 306.939
v 19.174 40.937 310.131
v 23.164 37.821 307.117
vt 1 0
vt 1 1
vt 0 1
vt 0 0
vn 0 1 0 
usemtl PedestrianCrossing
f 173/173/44 174/174/44 175/175/44 176/176/44
v -223.716 45.275 82.475
v -226.705 45.302 86.484
v -223.498 45.071 88.875
v -220.509 45.015 84.867
vt 1 0
vt 1 1
vt 0 1
vt 0 0
vn 0 1 0 
usemtl PedestrianCrossing
f 177/177/45 178/178/45 179/179/45 180/180/45
v 558.145 22.041 -317.981
v 555.317 21.925 -320.81
v 552.488 23.118 -317.981
v 555.317 23.23 -315.153
vt 1 0
vt 1 1
vt 0 1
vt 0 0
vn 0 1 0 
usemtl PedestrianCrossing
f 181/181/46 182/182/46 183/183/46 184/184/46
v 536.11 13.703 -368.745
v 539.225 11.03 -371.255
v 536.716 10.581 -374.37
v 533.601 13.334 -371.86
vt 1 0
vt 1 1
vt 0 1
vt 0 0
vn 0 1 0 
usemtl PedestrianCrossing
f 185/185/47 186/186/47 187/187/47 188/188/47
v -344.361 49.156 -174.618
v -346.222 49.178 -178.158
v -349.763 49.206 -176.297
v -347.902 49.182 -172.757
vt 1 0
vt 1 1
vt 0 1
vt 0 0
vn 0 1 0 
usemtl PedestrianCrossing
f 189/189/48 190/190/48 191/191/48 192/192/48
v -308.276 47.829 95.332
v -308.709 47.932 89.849
v -312.697 48.027 90.164
v -312.263 47.952 95.647
vt 1 0
vt 1 1
vt 0 1
vt 0 0
vn 0 1 0 
usemtl PedestrianCrossing
f 193/193/49 194/194/49 195/195/49 196/196/49
v -6.503 56.571 -453.755
v -3.256 56.931 -451.417
v -0.919 56.653 -454.664
v -4.165 56.277 -457.001
vt 1 0
vt 1 1
vt 0 1
vt 0 0
vn 0 1 0 
usemtl PedestrianCrossing
f 197/197/50 198/198/50 199/199/50 200/200/50
v 171.163 13.024 417.905
v 177.094 12.653 416.996
v 176.488 13.001 413.042
v 170.557 13.311 413.952
vt 1 0
vt 1 1
vt 0 1
vt 0 0
vn 0 1 0 
usemtl PedestrianCrossing
f 201/201/51 202/202/51 203/203/51 204/204/51
v 298.999 29.221 -494.787
v 298.445 27.693 -498.749
v 294.483 27.496 -498.195
v 295.037 29.006 -494.234
vt 1 0
vt 1 1
vt 0 1
vt 0 0
vn 0 1 0 
usemtl PedestrianCrossing
f 205/205/52 206/206/52 207/207/52 208/208/52
v 443.34 9.815 -494.345
v 442.637 11.729 -490.408
v 446.575 9.071 -489.705
v 447.278 7.521 -493.642
vt 1 0
vt 1 1
vt 0 1
vt 0 0
vn 0 1 0 
usemtl PedestrianCrossing
f 209/209/53 210/210/53 211/211/53 212/212/53
v 619.237 29.303 -252.369
v 621.295 27.987 -255.799
v 617.865 27.953 -257.857
v 615.807 29.41 -254.427
vt 1 0
vt 1 1
vt 0 1
vt 0 0
vn 0 1 0 
usemtl PedestrianCrossing
f 213/213/54 214/214/54 215/215/54 216/216/54
