mtllib paris.mtl
v -65.97740631975466 3.58 910.2401734562591
v -69.57740631976048 3.58 880.440173455514
v -70.47740631975466 3.58 891.6401734557003
v -69.27740631974302 3.58 901.8401734558865
v -65.97740631975466 3.58 910.2401734562591
v -70.47740631975466 3.58 891.6401734557003
v -65.97740631975466 3.58 910.2401734562591
v -62.37740631974884 3.58 916.3401734558865
v -69.57740631976048 3.58 880.440173455514
v -62.37740631974884 3.58 916.3401734558865
v -68.27740631974302 3.58 871.440173455514
v -69.57740631976048 3.58 880.440173455514
v -62.37740631974884 3.58 916.3401734558865
v -55.977406319754664 3.58 921.940173455514
v -68.27740631974302 3.58 871.440173455514
v -55.977406319754664 3.58 921.940173455514
v -65.57740631976048 3.58 860.6401734557003
v -68.27740631974302 3.58 871.440173455514
v -65.57740631976048 3.58 860.6401734557003
v -55.977406319754664 3.58 921.940173455514
v -52.577406319760485 3.58 923.8401734558865
v -52.577406319760485 3.58 923.8401734558865
v -61.577406319760485 3.58 851.3401734558865
v -65.57740631976048 3.58 860.6401734557003
v -52.577406319760485 3.58 923.8401734558865
v -56.977406319754664 3.58 843.0401734560728
v -61.577406319760485 3.58 851.3401734558865
v -52.577406319760485 3.58 923.8401734558865
v -49.6774063197372 3.58 924.440173455514
v -56.977406319754664 3.58 843.0401734560728
v -49.6774063197372 3.58 924.440173455514
v -53.77740631974302 3.58 839.5401734560728
v -56.977406319754664 3.58 843.0401734560728
v -49.6774063197372 3.58 924.440173455514
v -44.6774063197372 3.58 924.7401734562591
v -53.77740631974302 3.58 839.5401734560728
v -44.6774063197372 3.58 924.7401734562591
v -51.6774063197372 3.58 837.2401734562591
v -53.77740631974302 3.58 839.5401734560728
v -44.6774063197372 3.58 924.7401734562591
v -27.077406319760485 3.58 925.3401734558865
v -51.6774063197372 3.58 837.2401734562591
v -27.077406319760485 3.58 925.3401734558865
v -44.77740631974302 3.58 830.940173455514
v -51.6774063197372 3.58 837.2401734562591
v -11.577406319760485 3.58 926.5401734560728
v -44.77740631974302 3.58 830.940173455514
v -27.077406319760485 3.58 925.3401734558865
v -11.577406319760485 3.58 926.5401734560728
v -38.977406319754664 3.58 827.3401734558865
v -44.77740631974302 3.58 830.940173455514
v -38.977406319754664 3.58 827.3401734558865
v -11.577406319760485 3.58 926.5401734560728
v -1.7774063197430223 3.58 824.2401734562591
v 23.722593680256978 3.58 830.3401734558865
v -1.7774063197430223 3.58 824.2401734562591
v -11.577406319760485 3.58 926.5401734560728
v -1.7774063197430223 3.58 824.2401734562591
v -15.277406319743022 3.58 822.1401734557003
v -38.977406319754664 3.58 827.3401734558865
v -11.577406319760485 3.58 926.5401734560728
v 8.122593680251157 3.58 929.8401734558865
v 23.722593680256978 3.58 830.3401734558865
v -32.077406319760485 3.58 824.2401734562591
v -38.977406319754664 3.58 827.3401734558865
v -15.277406319743022 3.58 822.1401734557003
v 23.722593680256978 3.58 830.3401734558865
v 8.122593680251157 3.58 929.8401734558865
v 57.922593680239515 3.58 839.7401734562591
v -23.577406319760485 3.58 822.1401734557003
v -32.077406319760485 3.58 824.2401734562591
v -15.277406319743022 3.58 822.1401734557003
v 8.122593680251157 3.58 929.8401734558865
v 25.3225936802628 3.58 934.2401734562591
v 57.922593680239515 3.58 839.7401734562591
v 57.922593680239515 3.58 839.7401734562591
v 25.3225936802628 3.58 934.2401734562591
v 80.02259368024534 3.58 848.0401734560728
v 80.02259368024534 3.58 848.0401734560728
v 25.3225936802628 3.58 934.2401734562591
v 43.022593680245336 3.58 941.2401734562591
v 80.02259368024534 3.58 848.0401734560728
v 43.022593680245336 3.58 941.2401734562591
v 99.8225936802628 3.58 857.1401734557003
v 43.022593680245336 3.58 941.2401734562591
v 60.422593680239515 3.58 950.440173455514
v 99.8225936802628 3.58 857.1401734557003
v 99.8225936802628 3.58 857.1401734557003
v 60.422593680239515 3.58 950.440173455514
v 108.02259368024534 3.58 862.0401734560728
v 108.02259368024534 3.58 862.0401734560728
v 60.422593680239515 3.58 950.440173455514
v 115.42259368023952 3.58 866.940173455514
v 115.42259368023952 3.58 866.940173455514
v 60.422593680239515 3.58 950.440173455514
v 123.52259368024534 3.58 873.8401734558865
v 78.52259368024534 3.58 962.940173455514
v 123.52259368024534 3.58 873.8401734558865
v 60.422593680239515 3.58 950.440173455514
v 78.52259368024534 3.58 962.940173455514
v 60.422593680239515 3.58 950.440173455514
v 78.02259368024534 3.58 962.7401734562591
v 123.52259368024534 3.58 873.8401734558865
v 78.52259368024534 3.58 962.940173455514
v 86.02259368024534 3.58 969.0401734560728
v 104.62259368025116 3.58 974.5401734560728
v 123.52259368024534 3.58 873.8401734558865
v 86.02259368024534 3.58 969.0401734560728
v 104.62259368025116 3.58 974.5401734560728
v 86.02259368024534 3.58 969.0401734560728
v 91.12259368025116 3.58 971.3401734558865
v 108.92259368023952 3.58 975.2401734562591
v 123.52259368024534 3.58 873.8401734558865
v 104.62259368025116 3.58 974.5401734560728
v 142.72259368025698 3.58 943.940173455514
v 123.52259368024534 3.58 873.8401734558865
v 108.92259368023952 3.58 975.2401734562591
v 120.62259368025116 3.58 973.3401734558865
v 142.72259368025698 3.58 943.940173455514
v 108.92259368023952 3.58 975.2401734562591
v 142.72259368025698 3.58 943.940173455514
v 136.3225936802628 3.58 890.5401734560728
v 123.52259368024534 3.58 873.8401734558865
v 120.62259368025116 3.58 973.3401734558865
v 141.42259368023952 3.58 951.2401734562591
v 142.72259368025698 3.58 943.940173455514
v 136.3225936802628 3.58 890.5401734560728
v 130.22259368025698 3.58 881.1401734557003
v 123.52259368024534 3.58 873.8401734558865
v 136.3225936802628 3.58 890.5401734560728
v 142.72259368025698 3.58 943.940173455514
v 143.42259368023952 3.58 904.0401734560728
v 141.42259368023952 3.58 951.2401734562591
v 120.62259368025116 3.58 973.3401734558865
v 130.02259368024534 3.58 969.7401734562591
v 143.42259368023952 3.58 904.0401734560728
v 142.72259368025698 3.58 943.940173455514
v 146.92259368023952 3.58 913.440173455514
v 141.42259368023952 3.58 951.2401734562591
v 130.02259368024534 3.58 969.7401734562591
v 136.52259368024534 3.58 965.0401734560728
v 142.72259368025698 3.58 943.940173455514
v 148.72259368025698 3.58 923.5401734560728
v 146.92259368023952 3.58 913.440173455514
v 141.42259368023952 3.58 951.2401734562591
v 136.52259368024534 3.58 965.0401734560728
v 141.92259368023952 3.58 957.8401734558865
v 148.72259368025698 3.58 923.5401734560728
v 142.72259368025698 3.58 943.940173455514
v 148.62259368025116 3.58 934.3401734558865
v 141.42259368023952 3.58 951.2401734562591
v 141.92259368023952 3.58 957.8401734558865
v 144.22259368025698 3.58 951.8401734558865
v 148.62259368025116 3.58 934.3401734558865
v 142.72259368025698 3.58 943.940173455514
v 148.22259368025698 3.58 944.1401734557003
vn 0.0 1.0 0.0
vn -0.0 1.0 -0.0
vn -0.0 1.0 -0.0
vn 0.0 1.0 0.0
vn -0.0 1.0 -0.0
vn 0.0 1.0 0.0
vn 0.0 1.0 0.0
vn 0.0 1.0 0.0
vn 0.0 1.0 0.0
vn -0.0 1.0 -0.0
vn 0.0 1.0 0.0
vn -0.0 1.0 -0.0
vn 0.0 1.0 0.0
vn -0.0 1.0 -0.0
vn 0.0 1.0 0.0
vn 0.0 1.0 0.0
vn 0.0 1.0 0.0
vn -0.0 1.0 0.0
vn 0.0 1.0 0.0
vn 0.0 1.0 0.0
vn -0.0 1.0 0.0
vn -0.0 1.0 0.0
vn 0.0 1.0 0.0
vn -0.0 1.0 0.0
vn -0.0 1.0 0.0
vn 0.0 1.0 0.0
vn 0.0 1.0 0.0
vn 0.0 1.0 0.0
vn -0.0 1.0 0.0
vn 0.0 1.0 0.0
vn 0.0 1.0 0.0
vn 0.0 1.0 0.0
vn 0.0 1.0 -0.0
vn 0.0 1.0 0.0
vn 0.0 1.0 0.0
vn 0.0 1.0 -0.0
vn 0.0 1.0 0.0
vn 0.0 1.0 -0.0
vn 0.0 1.0 0.0
vn 0.0 1.0 -0.0
vn 0.024305541417726083 0.9996824110566508 0.006657152570942992
vn 0.0 1.0 0.0
vn -0.07868022869598491 0.994280972444525 -0.07221336058595419
vn 0.009222700710942552 0.9999457059533289 0.00485045741092425
vn 0.0 1.0 0.0
vn 0.012855249356498373 0.9999059114256507 0.0047865290160020195
vn 0.0 1.0 0.0
vn 0.020751656374174008 0.9997778209301854 0.0036983149972088115
vn 0.0 1.0 0.0
vn 0.03439645867672926 0.9994082159945158 -3.18485728512265E-4
vn 0.0 1.0 0.0
vn 7.408611792849E-4 0.9997921604962274 0.020373682411360297
usemtl Water
f 1//1 2//1 3//1
f 4//2 5//2 6//2
f 7//3 8//3 9//3
f 10//4 11//4 12//4
f 13//5 14//5 15//5
f 16//6 17//6 18//6
f 19//7 20//7 21//7
f 22//8 23//8 24//8
f 25//9 26//9 27//9
f 28//10 29//10 30//10
f 31//11 32//11 33//11
f 34//12 35//12 36//12
f 37//13 38//13 39//13
f 40//14 41//14 42//14
f 43//15 44//15 45//15
f 46//16 47//16 48//16
f 49//17 50//17 51//17
f 52//18 53//18 54//18
f 55//19 56//19 57//19
f 58//20 59//20 60//20
f 61//21 62//21 63//21
f 64//22 65//22 66//22
f 67//23 68//23 69//23
f 70//24 71//24 72//24
f 73//25 74//25 75//25
f 76//26 77//26 78//26
f 79//27 80//27 81//27
f 82//28 83//28 84//28
f 85//29 86//29 87//29
f 88//30 89//30 90//30
f 91//31 92//31 93//31
f 94//32 95//32 96//32
f 97//33 98//33 99//33
f 100//34 101//34 102//34
f 103//35 104//35 105//35
f 106//36 107//36 108//36
f 109//37 110//37 111//37
f 112//38 113//38 114//38
f 115//39 116//39 117//39
f 118//40 119//40 120//40
f 121//41 122//41 123//41
f 124//42 125//42 126//42
f 127//43 128//43 129//43
f 130//44 131//44 132//44
f 133//45 134//45 135//45
f 136//46 137//46 138//46
f 139//47 140//47 141//47
f 142//48 143//48 144//48
f 145//49 146//49 147//49
f 148//50 149//50 150//50
f 151//51 152//51 153//51
f 154//52 155//52 156//52
