mtllib materials.mtl
v -58.196 143.272 -217.666
v -53.013 143.198 -218.087
v -53.338 143.208 -222.074
v -58.521 143.295 -221.652
vt 1 0
vt 1 1
vt 0 1
vt 0 0
vn 0 1 0 
usemtl PedestrianCrossing
f 1/1/1 2/2/1 3/3/1 4/4/1
v -48.434 143.164 -214.394
v -51.83 143.178 -210.456
v -48.801 143.161 -207.844
v -45.405 143.151 -211.781
vt 1 0
vt 1 1
vt 0 1
vt 0 0
vn 0 1 0 
usemtl PedestrianCrossing
f 5/5/2 6/6/2 7/7/2 8/8/2
v -5.639 151.13 -896.849
v -10.496 151.13 -898.706
v -11.924 151.13 -894.969
v -7.067 151.13 -893.113
vt 1 0
vt 1 1
vt 0 1
vt 0 0
vn 0 1 0 
usemtl PedestrianCrossing
f 9/9/3 10/10/3 11/11/3 12/12/3
v 103.659 133.311 -57.232
v 108.289 133.238 -59.599
v 106.467 133.232 -63.161
v 101.838 133.312 -60.793
vt 1 0
vt 1 1
vt 0 1
vt 0 0
vn 0 1 0 
usemtl PedestrianCrossing
f 13/13/4 14/14/4 15/15/4 16/16/4
v 105.032 133.901 -41.784
v 102.814 133.768 -46.487
v 99.196 133.89 -44.781
v 101.414 133.984 -40.078
vt 1 0
vt 1 1
vt 0 1
vt 0 0
vn 0 1 0 
usemtl PedestrianCrossing
f 17/17/5 18/18/5 19/19/5 20/20/5
