mtllib materials.mtl
v 1433.72 0.1 928.53
v 1428.8 0.1 935.09
v 1432 0.1 937.49
v 1436.92 0.1 930.93
vt 1 0
vt 1 1
vt 0 1
vt 0 0
vn 0 1 0 
usemtl PedestrianCrossing
f 1/1/1 2/2/1 3/3/1 4/4/1
v 108.472 150.054 -1089.942
v 103.396 149.984 -1091.074
v 102.526 150.015 -1087.17
v 107.601 150.073 -1086.038
vt 1 0
vt 1 1
vt 0 1
vt 0 0
vn 0 1 0 
usemtl PedestrianCrossing
f 5/5/2 6/6/2 7/7/2 8/8/2
v -222.299 0.1 871.384
v -228.978 0.1 870.849
v -229.298 0.1 874.836
v -222.619 0.1 875.371
vt 1 0
vt 1 1
vt 0 1
vt 0 0
vn 0 1 0 
usemtl PedestrianCrossing
f 9/9/3 10/10/3 11/11/3 12/12/3
v -62.556 143.421 -233.87
v -57.521 143.291 -235.169
v -58.521 143.305 -239.043
v -63.556 143.559 -237.743
vt 1 0
vt 1 1
vt 0 1
vt 0 0
vn 0 1 0 
usemtl PedestrianCrossing
f 13/13/4 14/14/4 15/15/4 16/16/4
v -44.986 143.151 -202.28
v -49.609 143.169 -199.899
v -47.777 143.171 -196.343
v -43.154 143.151 -198.724
vt 1 0
vt 1 1
vt 0 1
vt 0 0
vn 0 1 0 
usemtl PedestrianCrossing
f 17/17/5 18/18/5 19/19/5 20/20/5
v 1741.982 0.1 -942.802
v 1742.588 0.1 -936.13
v 1746.572 0.1 -936.492
v 1745.965 0.1 -943.164
vt 1 0
vt 1 1
vt 0 1
vt 0 0
vn 0 1 0 
usemtl PedestrianCrossing
f 21/21/6 22/22/6 23/23/6 24/24/6
v 1432.791 0.1 936.396
v 1437.685 0.1 929.816
v 1434.475 0.1 927.429
v 1429.581 0.1 934.009
vt 1 0
vt 1 1
vt 0 1
vt 0 0
vn 0 1 0 
usemtl PedestrianCrossing
f 25/25/7 26/26/7 27/27/7 28/28/7
v -5.639 151.13 -896.849
v -10.496 151.13 -898.706
v -11.924 151.13 -894.969
v -7.067 151.13 -893.113
vt 1 0
vt 1 1
vt 0 1
vt 0 0
vn 0 1 0 
usemtl PedestrianCrossing
f 29/29/8 30/30/8 31/31/8 32/32/8
v 74.887 149.134 -1095.919
v 79.65 149.157 -1093.834
v 81.254 149.141 -1097.499
v 76.491 149.129 -1099.584
vt 1 0
vt 1 1
vt 0 1
vt 0 0
vn 0 1 0 
usemtl PedestrianCrossing
f 33/33/9 34/34/9 35/35/9 36/36/9
v 111.301 133.202 -65.877
v 116.454 133.184 -65.178
v 116.992 133.193 -69.142
v 111.839 133.223 -69.841
vt 1 0
vt 1 1
vt 0 1
vt 0 0
vn 0 1 0 
usemtl PedestrianCrossing
f 37/37/10 38/38/10 39/39/10 40/40/10
v 99.135 134.117 -34.316
v 95.854 134.098 -38.35
v 92.751 134.123 -35.826
v 96.032 134.124 -31.792
vt 1 0
vt 1 1
vt 0 1
vt 0 0
vn 0 1 0 
usemtl PedestrianCrossing
f 41/41/11 42/42/11 43/43/11 44/44/11
v 1781.761 0.1 -925.743
v 1777.243 0.1 -930.691
v 1774.289 0.1 -927.994
v 1778.807 0.1 -923.046
vt 1 0
vt 1 1
vt 0 1
vt 0 0
vn 0 1 0 
usemtl PedestrianCrossing
f 45/45/12 46/46/12 47/47/12 48/48/12
v -226.548 0.1 874.971
v -219.886 0.1 875.69
v -219.457 0.1 871.713
v -226.119 0.1 870.994
vt 1 0
vt 1 1
vt 0 1
vt 0 0
vn 0 1 0 
usemtl PedestrianCrossing
f 49/49/13 50/50/13 51/51/13 52/52/13
v -214.709 134.878 204.76
v -217.486 134.867 212.476
v -213.722 134.978 213.83
v -210.946 134.977 206.114
vt 1 0
vt 1 1
vt 0 1
vt 0 0
vn 0 1 0 
usemtl PedestrianCrossing
f 53/53/14 54/54/14 55/55/14 56/56/14
v -66.486 150.105 -645.014
v -61.287 150.117 -645.08
v -61.338 150.121 -649.08
v -66.538 150.113 -649.013
vt 1 0
vt 1 1
vt 0 1
vt 0 0
vn 0 1 0 
usemtl PedestrianCrossing
f 57/57/15 58/58/15 59/59/15 60/60/15
v -56.767 142.873 -358.479
v -61.958 143.021 -358.167
v -61.719 142.899 -354.175
v -56.528 142.73 -354.486
vt 1 0
vt 1 1
vt 0 1
vt 0 0
vn 0 1 0 
usemtl PedestrianCrossing
f 61/61/16 62/62/16 63/63/16 64/64/16
v -215.322 134.994 218.205
v -212.564 134.973 210.483
v -216.331 134.868 209.138
v -219.089 134.867 216.86
vt 1 0
vt 1 1
vt 0 1
vt 0 0
vn 0 1 0 
usemtl PedestrianCrossing
f 65/65/17 66/66/17 67/67/17 68/68/17
v -59.419 142.469 -296.115
v -64.618 142.791 -296.245
v -64.718 142.918 -292.246
v -59.519 142.663 -292.116
vt 1 0
vt 1 1
vt 0 1
vt 0 0
vn 0 1 0 
usemtl PedestrianCrossing
f 69/69/18 70/70/18 71/71/18 72/72/18
v 48.256 139.796 -162.111
v 52.761 139.978 -164.709
v 50.762 140.286 -168.174
v 46.258 140.12 -165.576
vt 1 0
vt 1 1
vt 0 1
vt 0 0
vn 0 1 0 
usemtl PedestrianCrossing
f 73/73/19 74/74/19 75/75/19 76/76/19
